<?xml version="1.0" encoding="UTF-8" standalone="no"?>
<svg xmlns="http://www.w3.org/2000/svg" viewBox="0 0 48 48" width="48px" height="48px">
  <path fill="#976bef" d="M24,4C12.954,4,4,12.954,4,24s8.954,20,20,20s20-8.954,20-20S35.046,4,24,4z"/>
  <path fill="#fff" d="M35,26c0,6.075-4.925,11-11,11s-11-4.925-11-11s4.925-11,11-11S35,19.925,35,26z M31,26c0,3.866-3.134,7-7,7 s-7-3.134-7-7s3.134-7,7-7S31,22.134,31,26z"/>
  <path fill="#fff" d="M21,15v-3c0-0.552,0.448-1,1-1h4c0.552,0,1,0.448,1,1v3H21z"/>
</svg>
